HIERARCHY
ROOT SpineBase
{
  OFFSET 0.000000 0.000000 0.000000
  CHANNELS 6 Xposition Yposition Zposition Zrotation Xrotation Yrotation
  JOINT SpineMid
  {
    OFFSET 0.000000 29.622151 0.000000
    CHANNELS 3 Zrotation Xrotation Yrotation
    JOINT SpineShoulder
    {
      OFFSET 0.191414 22.024205 -0.829632
      CHANNELS 3 Zrotation Xrotation Yrotation
      JOINT Neck
      {
        OFFSET 0.104787 7.299963 -0.598261
        CHANNELS 3 Zrotation Xrotation Yrotation
        JOINT Head
        {
          OFFSET -3.752538 13.514084 -1.711380
          CHANNELS 3 Zrotation Xrotation Yrotation
          End Site
          {
            OFFSET 0 0 0
          }
        }
      }
      JOINT ShoulderLeft
      {
        OFFSET -16.432969 -4.538451 5.229664
        CHANNELS 3 Zrotation Xrotation Yrotation
        JOINT ElbowLeft
        {
          OFFSET -2.990710 -25.763306 0.363381
          CHANNELS 3 Zrotation Xrotation Yrotation
          JOINT WristLeft
          {
            OFFSET -1.169169 -21.238260 -5.990271
            CHANNELS 3 Zrotation Xrotation Yrotation
            JOINT HandLeft
            {
              OFFSET 0.362800 -2.506473 0.415219
              CHANNELS 3 Zrotation Xrotation Yrotation
              JOINT HandTipLeft
              {
                OFFSET -0.749510 -5.802068 -0.557039
                CHANNELS 3 Zrotation Xrotation Yrotation
                End Site
                {
                  OFFSET 0 0 0
                }
              }
              JOINT ThumbLeft
              {
                OFFSET -3.438497 1.475507 -1.763766
                CHANNELS 3 Zrotation Xrotation Yrotation
                End Site
                {
                  OFFSET 0 0 0
                }
              }
            }
          }
        }
      }
      JOINT ShoulderRight
      {
        OFFSET 13.905676 -3.359046 -7.675911
        CHANNELS 3 Zrotation Xrotation Yrotation
        JOINT ElbowRight
        {
          OFFSET 5.181742 -29.160106 -0.994147
          CHANNELS 3 Zrotation Xrotation Yrotation
          JOINT WristRight
          {
            OFFSET 1.602633 -21.661744 -3.205500
            CHANNELS 3 Zrotation Xrotation Yrotation
            JOINT HandRight
            {
              OFFSET 2.555463 -5.053560 -2.247302
              CHANNELS 3 Zrotation Xrotation Yrotation
              JOINT HandTipRight
              {
                OFFSET 1.689653 -6.769986 -2.371013
                CHANNELS 3 Zrotation Xrotation Yrotation
                End Site
                {
                  OFFSET 0 0 0
                }
              }
              JOINT ThumbRight
              {
                OFFSET 3.600471 0.972889 -3.032863
                CHANNELS 3 Zrotation Xrotation Yrotation
                End Site
                {
                  OFFSET 0 0 0
                }
              }
            }
          }
        }
      }
    }
  }
  JOINT HipLeft
  {
    OFFSET -6.133322 -0.251568 -0.937424
    CHANNELS 3 Zrotation Xrotation Yrotation
    JOINT KneeLeft
    {
      OFFSET -0.919565 -29.634390 6.159619
      CHANNELS 3 Zrotation Xrotation Yrotation
      JOINT AnkleLeft
      {
        OFFSET 2.403703 -31.195241 4.293067
        CHANNELS 3 Zrotation Xrotation Yrotation
        JOINT FootLeft
        {
          OFFSET 1.613859 -7.227926 -6.942757
          CHANNELS 3 Zrotation Xrotation Yrotation
          End Site
          {
            OFFSET 0 0 0
          }
        }
      }
    }
  }
  JOINT HipRight
  {
    OFFSET 6.693431 1.802975 -5.755139
    CHANNELS 3 Zrotation Xrotation Yrotation
    JOINT KneeRight
    {
      OFFSET 21.364373 -25.937396 -8.143653
      CHANNELS 3 Zrotation Xrotation Yrotation
      JOINT AnkleRight
      {
        OFFSET 2.649179 -28.629400 -5.242220
        CHANNELS 3 Zrotation Xrotation Yrotation
        JOINT FootRight
        {
          OFFSET -7.325975 1.469362 -9.055899
          CHANNELS 3 Zrotation Xrotation Yrotation
          End Site
          {
            OFFSET 0 0 0
          }
        }
      }
    }
  }
}
MOTION
Frames: 12
Frame Time: 0.033333
-26.203571 70.723594 359.475230 -0.000000 0.000000 20.586126 -0.000000 0.000000 -20.586126 -0.000000 0.000000 0.000000 -0.000000 0.000000 0.000000 0.000000 0.000000 0.000000 -0.000000 0.000000 0.000000 -0.000000 0.000000 0.000000 -0.000000 0.000000 0.000000 -0.000000 0.000000 0.000000 0.000000 0.000000 0.000000 0.000000 0.000000 0.000000 -0.000000 0.000000 0.000000 -0.000000 0.000000 0.000000 -0.000000 0.000000 0.000000 -0.000000 0.000000 0.000000 0.000000 0.000000 0.000000 0.000000 0.000000 0.000000 -0.000000 0.000000 -20.586126 -0.000000 0.000000 0.000000 -0.000000 0.000000 0.000000 0.000000 0.000000 0.000000 -0.000000 0.000000 -20.586126 -0.000000 0.000000 0.000000 -0.000000 0.000000 0.000000 0.000000 0.000000 0.000000
-26.185155 70.766786 359.558920 -0.144446 -0.212799 20.425245 0.209629 0.149010 -20.425786 -0.000000 0.000000 0.000000 -0.000000 0.000000 0.000000 0.000000 0.000000 0.000000 -0.308635 -1.160418 0.127174 -0.054013 0.184357 0.027320 5.329626 3.556457 0.838337 -3.667601 -3.303264 -1.265219 0.000000 0.000000 0.000000 0.000000 0.000000 0.000000 -0.000000 0.000000 0.000000 -0.000000 0.000000 0.000000 0.120793 2.899290 1.393151 -0.886012 -2.318034 -1.044979 0.000000 0.000000 0.000000 0.000000 0.000000 0.000000 0.209629 0.149010 -20.425786 -0.000000 0.000000 0.000000 0.848416 0.895478 -0.615993 0.000000 0.000000 0.000000 0.719333 1.118412 -19.583714 -0.155342 -1.084147 -0.849179 1.131442 -1.364204 0.164747 0.000000 0.000000 0.000000
-26.163099 70.803581 359.633689 -0.271019 -0.403685 20.300957 0.394247 0.284574 -20.302891 -0.000000 0.000000 0.000000 -0.000000 0.000000 0.000000 0.000000 0.000000 0.000000 -0.552666 -2.174412 0.233967 -0.024280 0.368798 0.021521 8.324249 6.585844 1.131523 -4.766380 -6.029927 -2.127244 0.000000 0.000000 0.000000 0.000000 0.000000 0.000000 -0.000000 0.000000 0.000000 -0.000000 0.000000 0.000000 0.167281 5.652280 2.715752 -1.663704 -4.744684 -2.205841 0.000000 0.000000 0.000000 0.000000 0.000000 0.000000 0.394247 0.284574 -20.302891 -0.000000 0.000000 0.000000 1.492006 1.669103 -1.064235 0.000000 0.000000 0.000000 1.379930 2.088728 -18.753476 -0.353684 -2.025095 -1.576081 1.865220 -2.545435 -0.948253 0.000000 0.000000 0.000000
-26.137403 70.833980 359.699538 -0.379669 -0.572584 20.213099 0.554134 0.406124 -20.216960 -0.459547 -0.750286 -0.029883 0.245115 1.828934 0.301600 0.000000 0.000000 0.000000 -0.273413 -2.295837 0.356935 0.090797 0.560023 -0.021124 9.603669 9.224265 1.204401 -3.855021 -8.297483 -2.596769 0.000000 0.000000 0.000000 0.000000 0.000000 0.000000 0.459195 0.750501 0.023867 -0.340745 -0.901128 -0.018953 0.488161 9.129987 3.971586 -2.338553 -7.261620 -3.451779 0.000000 0.000000 0.000000 0.000000 0.000000 0.000000 0.554134 0.406124 -20.216960 -0.000000 0.000000 0.000000 1.932581 2.330858 -1.343934 0.000000 0.000000 0.000000 1.990220 2.908068 -18.091346 -1.731840 -2.768443 -2.026981 3.307979 -3.609508 -3.617006 0.000000 0.000000 0.000000
-26.108068 70.857982 359.756467 -0.470359 -0.719439 20.161481 -0.130287 -0.038863 -20.178984 0.031202 -0.112969 -0.017680 0.313084 2.260618 0.378961 0.000000 0.000000 0.000000 -0.305145 -2.865102 0.439092 0.292085 0.763138 -0.103461 9.510080 11.586803 1.235361 -1.304420 -10.130974 -2.687501 0.000000 0.000000 0.000000 0.000000 0.000000 0.000000 0.279870 1.759111 0.192974 -0.143916 -1.900544 -0.185272 0.480870 11.658270 5.131537 -2.914819 -9.852719 -4.753576 0.000000 0.000000 0.000000 0.000000 0.000000 0.000000 0.689529 0.513206 -20.167522 -0.000000 0.000000 0.000000 2.171967 2.888478 -1.454744 0.000000 0.000000 0.000000 2.557149 3.574369 -17.593505 -2.465187 -3.372010 -2.464843 3.615687 -4.536222 -7.636701 0.000000 0.000000 0.000000
-26.075094 70.875587 359.804476 -0.543061 -0.844208 20.145889 -0.122911 -0.035240 -20.165872 0.042046 -0.114387 -0.019245 0.374452 2.603815 0.444361 0.000000 0.000000 0.000000 -0.309950 -3.341869 0.505372 0.579811 0.981682 -0.227533 8.217698 13.753081 1.330089 2.596588 -11.517125 -2.409288 0.000000 0.000000 0.000000 0.000000 0.000000 0.000000 0.281809 2.080623 0.234890 -0.132859 -2.183461 -0.224883 0.407759 13.887810 6.196035 -3.394851 -12.503078 -6.083876 0.000000 0.000000 0.000000 0.000000 0.000000 0.000000 0.800630 0.605471 -20.154121 -0.000000 0.000000 0.000000 2.211660 3.347294 -1.396414 0.000000 0.000000 0.000000 3.086169 4.086049 -17.256423 -3.268946 -3.821349 -2.781692 3.449570 -5.266584 -13.294292 0.000000 0.000000 0.000000
-26.028823 70.894882 359.844480 -0.590679 -0.952817 20.214466 -0.054328 -0.011819 -20.234616 0.067985 -0.083051 -0.016880 0.433662 2.888008 0.520823 0.000000 0.000000 0.000000 -0.241841 -3.732992 0.552326 1.096881 1.805800 -0.505272 5.376982 13.321223 1.555194 6.518737 -11.242651 -1.753442 0.000000 0.000000 0.000000 0.000000 0.000000 0.000000 0.227254 2.387633 0.282901 -0.038864 -2.737024 -0.306330 0.695505 15.405313 6.582135 -4.079545 -14.908205 -7.004374 0.000000 0.000000 0.000000 0.000000 0.000000 0.000000 1.636956 1.057027 -20.134292 -0.580981 -0.603858 -0.104952 4.235311 2.133472 -3.577821 0.000000 0.000000 0.000000 3.584632 4.442809 -17.129309 -4.240579 -4.379576 -2.994719 0.796087 -3.964521 -28.415402 0.000000 0.000000 0.000000
-25.979069 70.904624 359.875762 -0.634366 -1.039090 20.284647 -0.007341 0.009890 -20.305572 0.078697 -0.057032 -0.016403 0.586414 3.169683 0.606250 0.000000 0.000000 0.000000 -0.139263 -4.035062 0.591732 1.513953 1.995134 -0.716312 1.945424 16.333248 2.011943 11.267045 -12.078591 -1.155065 0.000000 0.000000 0.000000 0.000000 0.000000 0.000000 0.099490 2.765425 0.354767 0.084053 -3.840597 -0.432261 1.107272 20.021754 8.109830 -5.275246 -20.294025 -9.569709 0.000000 0.000000 0.000000 0.000000 0.000000 0.000000 1.734819 1.131785 -20.204020 -0.601267 -0.623029 -0.108772 0.608793 2.636906 -0.009691 0.000000 0.000000 0.000000 4.094592 4.595648 -17.161263 -5.255022 -4.586532 -3.028286 1.062611 -4.109379 -31.144619 0.000000 0.000000 0.000000
-25.939438 70.942818 359.900638 -0.653606 -1.095483 20.373030 0.024116 0.018725 -20.393999 0.087334 -0.033798 -0.015488 0.571893 3.305754 0.639010 0.000000 0.000000 0.000000 -0.076986 -4.230493 0.616790 1.696100 1.406222 -0.784142 -2.471609 21.901998 2.918141 20.508197 -12.404348 0.271780 0.000000 0.000000 0.000000 0.000000 0.000000 0.000000 0.047635 2.917513 0.381093 0.059296 -3.663558 -0.427341 1.116775 22.249493 9.241021 -7.525901 -24.166821 -11.690694 0.000000 0.000000 0.000000 0.000000 0.000000 0.000000 1.751056 1.170950 -20.297565 -0.580952 -0.610994 -0.104760 -1.266741 5.592656 2.420453 0.000000 0.000000 0.000000 4.573309 4.425562 -17.460269 -6.841021 -3.906611 -2.648860 1.499092 -5.800004 -38.374639 0.000000 0.000000 0.000000
-25.902962 70.956335 359.925871 -0.634439 -1.129060 20.474609 0.048868 0.018836 -20.493966 0.093948 -0.020493 -0.013136 0.446091 3.541600 0.691365 0.000000 0.000000 0.000000 -0.085622 -4.381166 0.632848 1.622653 0.310767 -0.717082 -4.832604 26.622541 3.776078 26.636161 -16.905985 3.079964 0.000000 0.000000 0.000000 0.000000 0.000000 0.000000 -0.011882 2.981920 0.387843 0.157570 -2.936028 -0.384897 -1.041551 18.707556 9.260746 -3.838970 -22.449055 -10.847456 0.000000 0.000000 0.000000 0.000000 0.000000 0.000000 1.703772 1.209301 -20.407447 -0.539260 -0.599128 -0.096198 -5.122703 7.702308 6.621522 0.000000 0.000000 0.000000 4.627822 4.145691 -17.824432 -7.518541 -2.957133 -2.197438 2.049658 -9.016379 -43.382663 0.000000 0.000000 0.000000
-25.881920 70.898321 359.947819 -0.635109 -1.151438 20.479288 0.075361 0.029615 -20.498105 0.096851 -0.010806 -0.012105 0.412563 2.990613 0.536666 0.000000 0.000000 0.000000 -0.093201 -4.521049 0.646708 1.681688 0.526013 -0.765038 -7.287589 27.249754 4.254782 29.737118 -16.377884 3.924560 0.000000 0.000000 0.000000 0.000000 0.000000 0.000000 0.070323 2.777295 0.342946 0.020313 -0.212311 -0.146445 -1.367939 13.332137 7.923096 -2.399134 -20.044998 -9.498269 0.000000 0.000000 0.000000 0.000000 0.000000 0.000000 0.997920 0.856359 -20.493128 -0.000000 0.000000 0.000000 -7.915932 8.959277 9.640684 0.000000 0.000000 0.000000 4.653410 4.537946 -17.524556 -6.635814 -3.908260 -2.726406 0.456947 -5.539401 -42.594904 0.000000 0.000000 0.000000
-25.890820 70.778030 359.970544 -0.716209 -1.199464 20.402600 0.110558 0.043599 -20.424473 0.102572 0.002869 -0.014060 0.524650 1.117468 0.021859 0.000000 0.000000 0.000000 -0.089592 -4.483360 0.644930 1.827232 1.317465 -0.848058 -8.191213 29.095594 4.947410 27.509695 -21.280711 4.876819 0.000000 0.000000 0.000000 0.000000 0.000000 0.000000 0.424179 2.372532 0.251316 -0.637042 3.956161 0.285788 -2.114198 7.204126 6.916946 -0.554500 -15.838213 -8.002106 0.000000 0.000000 0.000000 0.000000 0.000000 0.000000 1.884693 1.177203 -20.317027 -0.640521 -0.559907 -0.118750 -7.967302 11.137895 10.119313 0.000000 0.000000 0.000000 5.304033 5.108676 -17.044724 -6.446159 -6.231492 -3.546454 -2.769278 2.184757 -48.411072 0.000000 0.000000 0.000000
